<svg width="409" height="530" viewBox="0 0 409 530" fill="none" xmlns="http://www.w3.org/2000/svg">
<path d="M325.708 182.303C330.547 218.599 330.702 253.49 329.064 283.803C318.313 297.99 301.985 308.848 283.208 315.145C278.511 316.719 273.661 318.009 268.708 318.994C251.773 322.361 233.621 322.167 216.208 317.643C211.473 316.413 206.793 314.863 202.208 312.977C184.363 305.639 167.941 293.218 155.26 274.803C150.965 220.945 154.984 164.255 180.208 125.303C188.708 172.303 231.708 200.303 255.708 206.803C234.708 185.803 235.541 157.303 236.708 142.803C253.208 170.803 302.208 182.303 325.708 182.303ZM325.708 182.303L320.208 149.803" stroke="#0B0D0C" stroke-width="6" stroke-linecap="round"/>
<path d="M125.208 268.803C122.708 277.969 125.208 265.303 119.708 305.803C114.22 294.934 110.359 280.679 107.959 264.803C102.487 228.608 104.609 183.98 112.377 151.803C117.347 131.217 124.627 115.728 133.708 110.803C119.208 99.3026 121.874 65.4693 125.208 55.8026C135.708 66.3026 149.041 72.8026 154.708 73.3026C158.308 48.1026 190.541 18.8026 206.208 7.30261L193.708 58.3026C258.208 -0.197388 337.708 29.3026 384.708 84.3026C367.508 82.3026 349.874 81.8026 343.208 81.8026C375.208 110.303 396.708 166.136 404.208 190.303L370.771 184.303C374.986 213.485 383.708 256.303 379.708 280.803C375.874 270.136 366.908 247.203 361.708 240.803C358.208 267.803 343.708 330.803 321.208 361.303C325.708 326.303 335.708 257.303 325.708 182.303C302.208 182.303 253.208 170.803 236.708 142.803C235.541 157.303 234.708 185.803 255.708 206.803C231.708 200.303 188.708 172.303 180.208 125.303C140.708 186.303 153.208 290.803 168.208 359.803C157.708 348.303 135.208 308.303 125.208 268.803Z" fill="#0B0D0C"/>
<path d="M320.208 149.803L325.708 182.303M325.708 182.303C302.208 182.303 253.208 170.803 236.708 142.803C235.541 157.303 234.708 185.803 255.708 206.803C231.708 200.303 188.708 172.303 180.208 125.303C140.708 186.303 153.208 290.803 168.208 359.803C157.708 348.303 135.208 308.303 125.208 268.803C122.708 277.969 125.208 265.303 119.708 305.803C114.22 294.934 110.359 280.679 107.959 264.803C102.487 228.608 104.609 183.98 112.377 151.803C117.347 131.217 124.627 115.728 133.708 110.803C119.208 99.3026 121.874 65.4693 125.208 55.8026C135.708 66.3026 149.041 72.8026 154.708 73.3026C158.308 48.1026 190.541 18.8026 206.208 7.30261L193.708 58.3026C258.208 -0.197388 337.708 29.3026 384.708 84.3026C367.508 82.3026 349.874 81.8026 343.208 81.8026C375.208 110.303 396.708 166.136 404.208 190.303L370.771 184.303M325.708 182.303C335.708 257.303 325.708 326.303 321.208 361.303C343.708 330.803 358.208 267.803 361.708 240.803C366.908 247.203 375.874 270.136 379.708 280.803C383.708 256.303 374.986 213.485 370.771 184.303M370.771 184.303C369.275 173.948 367.843 164.937 366.708 158.303" stroke="#0B0D0C" stroke-width="6" stroke-linecap="round"/>
<path d="M200.441 92.8026C196.441 120.003 209.774 141.803 216.941 149.303C211.741 128.503 220.774 109.303 225.941 102.303C239.541 132.303 261.941 146.136 271.441 149.303C259.041 133.703 260.274 119.803 262.441 114.803C273.241 128.003 295.941 136.969 305.941 139.803" stroke="#E52E00" stroke-width="10" stroke-linecap="round"/>
<path d="M192.208 342.303L217.302 327.303C217.797 335.054 217.248 341.571 216.208 346.831C207.408 354.808 196.541 354.136 192.208 352.803V342.303Z" fill="#071E22"/>
<path d="M267.146 327.303C306.208 350.235 307.408 354.103 304.208 359.303C296.041 359.303 277.108 357.489 266.708 350.235C265.812 344.493 265.633 337.158 267.146 327.303Z" fill="#071E22"/>
<path d="M192.208 342.303L217.302 327.303C217.797 335.054 217.248 341.571 216.208 346.831C207.408 354.808 196.541 354.136 192.208 352.803V342.303Z" stroke="#E52E00" stroke-width="6"/>
<path d="M267.146 327.303C306.208 350.235 307.408 354.103 304.208 359.303C296.041 359.303 277.108 357.489 266.708 350.235C265.812 344.493 265.633 337.158 267.146 327.303Z" stroke="#E52E00" stroke-width="6"/>
<path d="M183.208 511.303L188.208 489.303L188.208 438.803L185.208 430.803L186.708 423.803C195.208 443.303 261.708 453.303 287.402 430.803C283.875 446.774 281.208 461.465 281.208 470.303L282.708 526.303H185.208L183.208 511.303Z" fill="#071E22" stroke="#0B0D0C" stroke-width="6"/>
<path d="M158.208 430.803C172.208 444.003 184.041 464.636 188.208 473.303V489.303L183.208 511.303L185.208 526.303H282.708L281.208 470.303C336.808 417.103 355.041 402.803 357.208 402.303L359.208 397.053L363.708 402.303L390.208 526.303H331.208H282.708H185.208H144.708H92.7076L113.208 416.803L120.708 397.803V390.303L132.708 380.803L158.208 430.803Z" fill="#0B0D0C"/>
<path d="M185.208 526.303L183.208 511.303L188.208 489.303V473.303C184.041 464.636 172.208 444.003 158.208 430.803L132.708 380.803L120.708 390.303V397.803L113.208 416.803L92.7076 526.303H144.708H185.208ZM185.208 526.303H282.708M282.708 526.303L281.208 470.303C336.808 417.103 355.041 402.803 357.208 402.303L359.208 397.053L363.708 402.303L390.208 526.303H331.208M282.708 526.303H331.208" stroke="#0B0D0C" stroke-width="6" stroke-linecap="round"/>
<path d="M328.838 483.303L327.708 462.803M328.838 483.303C330.734 482.103 349.874 464.803 359.208 456.303M328.838 483.303L331.208 526.303" stroke="#E52E00" stroke-width="4" stroke-linecap="round"/>
<path d="M144.708 526.303L145.583 501.803M145.583 501.803L146.708 470.303M145.583 501.803L122.208 456.803" stroke="#E52E00" stroke-width="4" stroke-linecap="round"/>
<path d="M304.208 359.303C302.609 370.171 293.654 402.496 287.402 430.803C283.875 446.774 281.208 461.465 281.208 470.303C336.808 417.103 355.041 402.803 357.208 402.303L361.208 391.803C354.008 377.803 349.874 373.969 348.708 373.803L327.708 352.803V337.803C302.708 322.303 292.708 318.994 283.208 315.145C278.511 316.719 273.661 318.009 268.708 318.994C268.058 321.949 267.544 324.713 267.146 327.303C306.208 350.235 307.408 354.103 304.208 359.303Z" fill="#0B0D0C" stroke="#0B0D0C" stroke-width="6"/>
<path d="M188.208 473.303C184.041 464.636 172.208 444.003 158.208 430.803L132.708 380.803C129.108 374.803 127.208 368.136 126.708 366.303L160.208 339.303L158.208 332.303C165.808 326.303 190.708 316.919 202.208 312.977C206.793 314.863 211.473 316.413 216.208 317.643C216.754 321.051 217.108 324.271 217.302 327.303L192.208 342.303V352.803L188.208 416.803L185.208 430.803L188.208 438.803V473.303Z" fill="#0B0D0C" stroke="#0B0D0C" stroke-width="6"/>
<path d="M188.208 473.303C184.041 464.636 172.208 444.003 158.208 430.803L132.708 380.803" stroke="#0B0D0C" stroke-width="6"/>
<path d="M216.208 346.831C207.408 354.808 196.541 354.136 192.208 352.803L188.208 416.803L186.708 423.803C195.208 443.303 261.708 453.303 287.402 430.803C293.654 402.496 302.609 370.171 304.208 359.303C296.041 359.303 277.108 357.489 266.708 350.235M216.208 346.831C217.248 341.571 217.797 335.054 217.302 327.303C217.108 324.271 216.754 321.051 216.208 317.643C233.62 322.167 251.773 322.361 268.708 318.994C268.058 321.949 267.544 324.713 267.146 327.303C265.633 337.158 265.812 344.493 266.708 350.235M216.208 346.831C214.679 354.562 212.091 359.576 210.208 361.803M266.708 350.235C267.751 356.931 269.767 361.462 271.208 365.303" stroke="#0B0D0C" stroke-width="6" stroke-linecap="round"/>
<path d="M107.959 264.803C102.487 228.608 104.609 183.98 112.377 151.803C93.2076 151.803 81.7076 151.803 75.7076 141.303C75.7076 154.303 91.2076 172.303 98.2076 177.803C62.2076 175.803 26.7076 218.803 5.20761 277.303C25.2076 268.803 88.7076 262.803 107.959 264.803Z" fill="#0B0D0C" stroke="#0B0D0C" stroke-width="6"/>
</svg>
